<svg width="20" height="20" viewBox="0 0 20 20" fill="none" xmlns="http://www.w3.org/2000/svg">
<path d="M10.002 19.625C4.68945 19.625 0.408203 15.3125 0.408203 10C0.408203 4.6875 4.68945 0.40625 10.002 0.40625C15.3145 0.40625 19.627 4.6875 19.627 10C19.627 15.3125 15.3145 19.625 10.002 19.625ZM10.002 1.5C5.31445 1.5 1.50195 5.3125 1.50195 10C1.50195 14.6875 5.31445 18.5312 10.002 18.5312C14.6895 18.5312 18.5332 14.6875 18.5332 10C18.5332 5.3125 14.6895 1.5 10.002 1.5Z" fill="#1BBB81"/>
<path d="M8.93945 12.1875C8.7207 12.1875 8.5332 12.125 8.3457 11.9687L6.2832 9.96875C6.06445 9.75 6.06445 9.40625 6.2832 9.1875C6.50195 8.96875 6.8457 8.96875 7.06445 9.1875L8.93945 11.0312L12.9395 7.15625C13.1582 6.9375 13.502 6.9375 13.7207 7.15625C13.9395 7.375 13.9395 7.71875 13.7207 7.9375L9.56445 12C9.3457 12.125 9.12695 12.1875 8.93945 12.1875Z" fill="#1BBB81"/>
</svg>
